<svg xmlns="http://www.w3.org/2000/svg" width="375" viewBox="0 0 375 375" height="375" version="1.0"><defs><clipPath id="a"><path d="M 1 25.714844 L 351.800781 25.714844 L 351.800781 356.144531 L 1 356.144531 Z M 1 25.714844"/></clipPath><clipPath id="b"><path d="M 6 23.472656 L 375 23.472656 L 375 356.144531 L 6 356.144531 Z M 6 23.472656"/></clipPath><clipPath id="c"><path d="M 0.757812 21 L 329 21 L 329 349 L 0.757812 349 Z M 0.757812 21"/></clipPath></defs><g clip-path="url(#a)"><path fill="#141F35" d="M 32.472656 164.195312 L 1.449219 179.453125 L 8.058594 192.890625 L 39.082031 177.632812 Z M 52.363281 165.6875 C 53.472656 165.6875 54.542969 165.4375 55.542969 164.949219 C 59.109375 163.195312 60.582031 158.863281 58.828125 155.296875 C 57.605469 152.8125 55.128906 151.269531 52.355469 151.269531 C 51.246094 151.269531 50.179688 151.515625 49.179688 152.011719 C 47.453125 152.859375 46.15625 154.332031 45.539062 156.152344 C 44.914062 157.976562 45.042969 159.929688 45.890625 161.660156 C 47.113281 164.144531 49.59375 165.6875 52.363281 165.6875 Z M 351.128906 356.148438 L 39.460938 356.148438 C 15.46875 256.761719 25.175781 230.320312 72.371094 153.011719 L 69.03125 146.214844 L 79.796875 140.917969 C 81.523438 138.117188 83.292969 135.25 85.105469 132.308594 C 110.699219 90.84375 149.550781 59.277344 188.691406 41.628906 C 188.4375 40.308594 188.484375 38.9375 188.878906 37.621094 C 189.71875 34.796875 191.890625 32.945312 195.148438 32.273438 C 196.355469 32.019531 197.421875 31.898438 198.402344 31.898438 C 202.015625 31.898438 203.585938 33.59375 204.972656 35.089844 C 204.976562 35.09375 204.980469 35.097656 204.984375 35.097656 C 241.269531 22.339844 276.253906 22.125 299.457031 37.71875 C 351.046875 72.386719 249.960938 204.695312 297.707031 259.121094 C 345.449219 313.546875 351.128906 356.148438 351.128906 356.148438"/></g><path fill="#F25624" d="M 27.722656 116.09375 L 23.519531 118.164062 L 20.164062 119.8125 L 28.203125 136.160156 L 31.5625 134.511719 L 35.765625 132.445312 Z M 66.027344 191.347656 L 70.054688 189.367188 L 65.730469 180.578125 L 75.269531 175.90625 L 70.882812 166.984375 L 61.15625 171.28125 L 56.996094 162.820312 L 74.683594 154.121094 L 72.707031 150.105469 L 57.875 157.402344 C 58.351562 159.835938 57.175781 162.378906 54.84375 163.523438 C 52.511719 164.671875 49.777344 164.050781 48.140625 162.1875 L 33.308594 169.484375 L 35.285156 173.5 L 52.972656 164.800781 L 57.050781 173.09375 L 47.328125 177.390625 L 52.363281 187.125 L 61.699219 182.550781 Z M 49.878906 153.429688 C 50.59375 153.082031 51.351562 152.894531 52.097656 152.859375 L 41.9375 132.207031 L 37.910156 134.179688 L 48.074219 154.839844 C 48.558594 154.269531 49.164062 153.785156 49.878906 153.429688 Z M 75.472656 214.253906 L 67.433594 197.90625 L 59.871094 201.621094 L 67.917969 217.972656 Z M 99.550781 226.550781 L 91.503906 210.203125 L 83.949219 213.917969 L 91.992188 230.269531 Z M 254.089844 160.457031 C 253.546875 159.023438 251.941406 158.304688 250.507812 158.847656 C 249.800781 159.117188 249.097656 159.371094 248.398438 159.609375 C 248.199219 159.679688 248 159.746094 247.800781 159.8125 C 247.234375 160 246.671875 160.179688 246.113281 160.351562 C 245.964844 160.394531 245.820312 160.445312 245.671875 160.488281 C 245.023438 160.679688 244.382812 160.855469 243.742188 161.019531 C 243.5 161.085938 243.257812 161.144531 243.015625 161.203125 C 242.585938 161.308594 242.15625 161.40625 241.730469 161.503906 C 241.472656 161.558594 241.210938 161.621094 240.953125 161.671875 C 240.382812 161.789062 239.8125 161.898438 239.246094 161.996094 C 238.941406 162.042969 238.632812 162.089844 238.324219 162.136719 C 230.492188 163.316406 223.433594 162.40625 217.25 159.371094 C 206.722656 154.210938 201.238281 144.097656 199.078125 139.117188 C 199.171875 139.089844 199.257812 139.050781 199.347656 139.023438 C 199.753906 138.890625 200.136719 138.695312 200.480469 138.453125 C 200.484375 138.449219 200.488281 138.449219 200.492188 138.449219 C 200.65625 138.328125 200.8125 138.203125 200.960938 138.0625 C 200.972656 138.046875 200.988281 138.027344 201.007812 138.015625 C 201.136719 137.886719 201.261719 137.75 201.375 137.601562 C 201.40625 137.5625 201.429688 137.523438 201.460938 137.484375 C 201.554688 137.355469 201.644531 137.222656 201.726562 137.082031 C 201.761719 137.011719 201.796875 136.9375 201.832031 136.863281 C 201.890625 136.746094 201.949219 136.625 201.996094 136.5 C 202.039062 136.386719 202.066406 136.265625 202.097656 136.144531 C 202.125 136.054688 202.15625 135.960938 202.179688 135.867188 C 202.222656 135.644531 202.25 135.417969 202.261719 135.183594 L 203.453125 100.375 C 203.460938 100.148438 203.445312 99.925781 203.417969 99.707031 C 203.414062 99.664062 203.40625 99.621094 203.402344 99.578125 C 203.367188 99.371094 203.320312 99.167969 203.261719 98.96875 C 203.25 98.933594 203.234375 98.898438 203.222656 98.867188 C 203.15625 98.667969 203.078125 98.484375 202.984375 98.300781 C 202.980469 98.289062 202.976562 98.277344 202.972656 98.269531 C 202.871094 98.078125 202.753906 97.902344 202.628906 97.730469 C 202.609375 97.703125 202.585938 97.675781 202.566406 97.648438 C 202.4375 97.480469 202.296875 97.320312 202.144531 97.175781 C 202.132812 97.164062 202.117188 97.152344 202.105469 97.140625 C 201.949219 96.996094 201.785156 96.863281 201.605469 96.742188 C 201.597656 96.738281 201.589844 96.726562 201.578125 96.722656 C 201.398438 96.601562 201.207031 96.496094 201.007812 96.402344 C 200.984375 96.390625 200.960938 96.378906 200.9375 96.371094 C 200.734375 96.28125 200.523438 96.207031 200.304688 96.148438 C 199.898438 96.039062 199.464844 95.988281 199.019531 96.011719 L 173.261719 97.296875 C 171.054688 97.410156 169.304688 99.203125 169.246094 101.410156 L 168.398438 134.054688 C 168.335938 136.371094 170.152344 138.304688 172.472656 138.386719 L 193.078125 139.097656 C 194.660156 143.429688 200.691406 157.402344 214.75 164.324219 C 220 166.910156 225.730469 168.203125 231.902344 168.203125 C 233.417969 168.203125 234.957031 168.117188 236.523438 167.960938 C 236.914062 167.925781 237.3125 167.871094 237.707031 167.820312 C 238.054688 167.78125 238.402344 167.738281 238.75 167.6875 C 239.140625 167.632812 239.535156 167.570312 239.929688 167.503906 C 240.3125 167.441406 240.695312 167.371094 241.082031 167.296875 C 241.445312 167.230469 241.808594 167.164062 242.171875 167.089844 C 242.882812 166.941406 243.59375 166.78125 244.3125 166.605469 C 244.5625 166.542969 244.8125 166.472656 245.0625 166.410156 C 245.613281 166.265625 246.160156 166.117188 246.71875 165.957031 C 247.011719 165.875 247.308594 165.785156 247.601562 165.695312 C 248.148438 165.53125 248.703125 165.355469 249.253906 165.171875 C 249.515625 165.085938 249.777344 165.003906 250.042969 164.914062 C 250.847656 164.636719 251.664062 164.347656 252.484375 164.035156 C 253.914062 163.492188 254.636719 161.886719 254.089844 160.457031 Z M 176.964844 77.117188 C 176.964844 78.34375 177.960938 79.339844 179.1875 79.339844 C 180.414062 79.339844 181.40625 78.34375 181.40625 77.117188 C 181.40625 75.890625 180.414062 74.898438 179.1875 74.898438 C 177.960938 74.898438 176.964844 75.890625 176.964844 77.117188 Z M 200.828125 75.210938 C 200.828125 76.433594 201.820312 77.429688 203.046875 77.429688 C 204.273438 77.429688 205.269531 76.433594 205.269531 75.210938 C 205.269531 73.984375 204.273438 72.992188 203.046875 72.992188 C 201.820312 72.992188 200.828125 73.984375 200.828125 75.210938 Z M 224.6875 73.300781 C 224.6875 74.527344 225.683594 75.519531 226.910156 75.519531 C 228.132812 75.519531 229.128906 74.527344 229.128906 73.300781 C 229.128906 72.074219 228.132812 71.082031 226.910156 71.082031 C 225.683594 71.082031 224.6875 72.074219 224.6875 73.300781 Z M 342.363281 158.40625 C 342.800781 159.847656 340.515625 160.386719 340.515625 160.386719 C 339.503906 162.828125 330.851562 161.078125 327.421875 160.230469 C 324.53125 159.519531 318.652344 154.792969 316.890625 153.339844 C 316.535156 153.046875 316.328125 152.609375 316.300781 152.148438 C 316.300781 152.140625 316.300781 152.140625 316.300781 152.132812 C 315.820312 151.894531 314.820312 151.394531 313.464844 150.714844 C 313.074219 150.816406 312.683594 150.921875 312.273438 151.003906 C 311.933594 151.078125 311.605469 151.152344 311.25 151.210938 C 311.207031 151.222656 311.164062 151.222656 311.121094 151.222656 C 310.742188 151.222656 310.402344 150.953125 310.339844 150.5625 C 310.308594 150.390625 310.351562 150.230469 310.425781 150.082031 C 310.53125 149.863281 310.730469 149.695312 310.988281 149.652344 C 311.074219 149.636719 311.148438 149.617188 311.230469 149.601562 C 301.714844 144.847656 282.460938 135.238281 277.386719 132.726562 C 274.398438 131.25 267.839844 129.375 261.285156 127.707031 C 260.9375 146.273438 260.574219 164.5 260.414062 172.574219 C 260.367188 175.007812 258.433594 176.984375 255.996094 177.089844 L 234.195312 178.050781 C 232.746094 184.253906 231.367188 190.1875 230.25 195.707031 C 230.492188 195.839844 230.738281 195.972656 230.980469 196.109375 C 231.054688 196.148438 231.128906 196.191406 231.203125 196.230469 C 231.585938 196.449219 231.71875 196.929688 231.503906 197.3125 C 231.359375 197.570312 231.089844 197.714844 230.8125 197.714844 C 230.765625 197.714844 230.714844 197.707031 230.667969 197.695312 C 230.582031 197.683594 230.5 197.65625 230.421875 197.613281 C 230.257812 197.519531 230.09375 197.429688 229.925781 197.335938 C 229.726562 198.359375 229.535156 199.371094 229.355469 200.363281 C 229.28125 200.789062 229.214844 201.222656 229.148438 201.65625 C 229.390625 201.816406 229.632812 201.972656 229.875 202.136719 C 229.980469 202.207031 230.089844 202.277344 230.195312 202.351562 C 230.554688 202.601562 230.644531 203.09375 230.398438 203.453125 C 230.246094 203.675781 229.996094 203.796875 229.746094 203.796875 C 229.710938 203.796875 229.683594 203.785156 229.652344 203.785156 C 229.527344 203.769531 229.40625 203.734375 229.296875 203.660156 C 229.164062 203.566406 229.035156 203.484375 228.90625 203.394531 C 226.210938 224.796875 233.257812 256.164062 242.566406 262.316406 C 249.765625 267.082031 264.738281 271.753906 271.054688 273.597656 C 271.050781 273.347656 271.148438 273.097656 271.367188 272.9375 C 271.402344 272.914062 271.441406 272.910156 271.476562 272.890625 C 271.816406 272.714844 272.242188 272.796875 272.476562 273.117188 C 272.480469 273.125 272.5 273.152344 272.53125 273.195312 C 272.632812 273.339844 272.871094 273.691406 273.207031 274.214844 C 273.421875 274.273438 273.605469 274.324219 273.730469 274.359375 C 282.640625 283.945312 285.066406 302.609375 281.117188 311.785156 C 280.363281 313.542969 279.066406 315.582031 277.019531 316.1875 C 276.300781 316.621094 275.527344 316.914062 274.703125 317.0625 C 274.28125 317.140625 273.851562 317.191406 273.398438 317.191406 C 272.84375 317.191406 272.269531 317.132812 271.679688 317.015625 C 271.25 316.933594 270.96875 316.515625 271.054688 316.085938 C 271.070312 316.011719 271.105469 315.949219 271.136719 315.886719 C 271.292969 315.578125 271.628906 315.390625 271.984375 315.460938 C 272.027344 315.472656 272.074219 315.472656 272.117188 315.480469 C 268.5625 313.804688 266.375 310.054688 265.074219 306.671875 C 265.035156 306.644531 264.996094 306.625 264.957031 306.59375 C 264.730469 306.421875 264.550781 306.222656 264.398438 306.019531 C 264.296875 306.113281 264.191406 306.195312 264.085938 306.296875 C 263.132812 303.625 262.691406 301.238281 262.527344 300.203125 C 262.527344 300.191406 262.523438 300.179688 262.519531 300.167969 C 262.507812 300.09375 262.5 300.03125 262.492188 299.972656 C 262.492188 299.957031 262.488281 299.941406 262.484375 299.929688 C 262.480469 299.878906 262.472656 299.832031 262.46875 299.792969 C 262.464844 299.777344 262.460938 299.765625 262.460938 299.757812 C 262.460938 299.730469 262.453125 299.699219 262.453125 299.683594 C 262.449219 299.667969 262.449219 299.648438 262.449219 299.648438 C 262.449219 299.648438 262.53125 299.476562 262.699219 299.195312 C 262.484375 299.023438 262.296875 298.820312 262.144531 298.585938 C 262.078125 298.691406 262.019531 298.789062 261.972656 298.871094 C 261.5625 298.882812 260.878906 298.894531 259.972656 298.894531 C 255.164062 298.894531 242.84375 298.539062 230.613281 295.308594 C 230.628906 295.261719 230.640625 295.210938 230.652344 295.164062 C 230.371094 295.210938 230.089844 295.21875 229.816406 295.183594 C 229.730469 295.410156 229.625 295.625 229.519531 295.832031 C 229.484375 295.90625 229.457031 295.988281 229.417969 296.058594 C 223.8125 294.457031 218.210938 292.164062 213.234375 288.945312 C 212.933594 288.75 212.628906 288.5625 212.332031 288.359375 C 212.203125 288.269531 212.070312 288.1875 211.9375 288.097656 C 211.003906 287.457031 210.105469 286.78125 209.238281 286.074219 C 208.890625 285.78125 208.542969 285.480469 208.195312 285.175781 C 207.046875 284.210938 205.925781 283.234375 204.867188 282.234375 C 204.855469 282.109375 204.851562 281.996094 204.839844 281.878906 C 204.796875 281.429688 204.792969 280.996094 204.804688 280.570312 C 204.300781 280.363281 203.902344 279.980469 203.738281 279.414062 C 189.90625 263.046875 180.699219 234.894531 180.605469 234.601562 L 173.027344 206.875 L 171.558594 210.949219 C 172.199219 210.582031 172.699219 210.117188 172.925781 209.496094 C 173.585938 211.917969 174.246094 214.339844 174.90625 216.757812 C 175.957031 220.59375 177.007812 224.433594 178.054688 228.273438 C 178.464844 229.765625 178.871094 231.257812 179.277344 232.75 C 179.40625 233.230469 179.539062 233.707031 179.667969 234.183594 C 179.707031 234.324219 179.875 234.667969 179.84375 234.8125 C 179.789062 235.035156 178.898438 235.523438 178.699219 235.671875 C 177.996094 236.207031 177.308594 236.765625 176.640625 237.34375 C 175.261719 238.53125 173.953125 239.800781 172.675781 241.101562 C 170.128906 243.714844 167.738281 246.472656 165.414062 249.285156 C 160.792969 254.867188 156.492188 260.714844 152.292969 266.625 C 152.308594 266.589844 152.320312 266.558594 152.332031 266.523438 C 152.457031 266.175781 152.625 264.808594 152.859375 262.722656 L 151.585938 266.253906 C 135.355469 289.167969 118.480469 317.511719 111.734375 329.058594 L 112.386719 329.351562 C 112.410156 329.363281 112.429688 329.386719 112.453125 329.402344 C 112.796875 329.605469 112.949219 330.027344 112.78125 330.402344 C 112.648438 330.695312 112.359375 330.867188 112.058594 330.867188 C 111.949219 330.867188 111.839844 330.847656 111.734375 330.796875 L 111.65625 330.765625 L 110.933594 330.4375 C 110.066406 331.925781 109.429688 333.035156 109.058594 333.675781 L 63.265625 310.6875 C 63.699219 310.257812 64.148438 309.855469 64.59375 309.464844 L 64.132812 309.257812 C 64.03125 309.210938 63.941406 309.140625 63.871094 309.058594 C 63.667969 308.832031 63.605469 308.503906 63.738281 308.207031 C 63.917969 307.808594 64.390625 307.632812 64.789062 307.8125 L 65.171875 307.984375 L 65.976562 308.351562 C 69.847656 305.464844 74.234375 304.003906 79.074219 304.003906 C 79.753906 304.003906 80.441406 304.042969 81.136719 304.101562 C 81.648438 303.847656 82.242188 303.78125 82.820312 303.976562 C 82.761719 303.808594 82.707031 303.640625 82.644531 303.464844 C 82.972656 303.507812 83.296875 303.5625 83.617188 303.617188 C 83.625 303.617188 83.625 303.621094 83.632812 303.621094 C 83.949219 303.675781 84.257812 303.738281 84.5625 303.800781 C 84.566406 303.800781 84.570312 303.804688 84.578125 303.804688 C 84.878906 303.871094 85.175781 303.9375 85.464844 304.007812 C 85.46875 304.007812 85.472656 304.007812 85.476562 304.007812 C 85.765625 304.082031 86.050781 304.15625 86.324219 304.230469 C 89.433594 305.097656 91.484375 306.21875 91.726562 306.351562 C 91.742188 306.359375 91.75 306.367188 91.75 306.367188 C 91.75 306.367188 91.832031 306.484375 91.960938 306.707031 C 92.210938 306.578125 92.472656 306.5 92.742188 306.472656 C 92.695312 306.390625 92.65625 306.316406 92.617188 306.253906 C 93.457031 303.558594 99.148438 285.609375 106.964844 266.503906 C 106.992188 266.015625 107.148438 265.53125 107.421875 265.136719 C 107.253906 264.925781 107.09375 264.703125 106.945312 264.464844 C 106.945312 264.464844 106.945312 264.464844 106.945312 264.460938 C 107.414062 263.332031 107.890625 262.199219 108.371094 261.070312 C 108.398438 261.007812 108.421875 260.945312 108.449219 260.882812 C 108.933594 259.75 109.421875 258.613281 109.921875 257.476562 C 109.949219 257.410156 109.980469 257.347656 110.007812 257.28125 C 110.4375 256.300781 110.875 255.324219 111.3125 254.351562 C 111.429688 254.09375 111.542969 253.839844 111.65625 253.585938 C 112.136719 252.539062 112.617188 251.492188 113.101562 250.457031 C 113.964844 248.609375 114.816406 246.789062 115.660156 244.984375 C 116.574219 243.027344 117.480469 241.085938 118.378906 239.167969 C 118.453125 239.148438 118.53125 239.132812 118.605469 239.113281 C 118.789062 238.429688 119.332031 237.875 120 237.578125 C 128.625 219.214844 136.867188 202.460938 149.152344 183.640625 C 148.90625 183.648438 148.761719 183.652344 148.738281 183.652344 C 148.566406 183.664062 148.417969 183.605469 148.285156 183.519531 C 148.074219 183.386719 147.925781 183.164062 147.914062 182.898438 C 147.890625 182.460938 148.230469 182.09375 148.667969 182.074219 C 148.695312 182.070312 148.894531 182.0625 149.238281 182.050781 C 149.480469 182.046875 149.808594 182.039062 150.199219 182.035156 C 150.945312 180.902344 151.714844 179.761719 152.492188 178.613281 C 152.257812 178.621094 152.117188 178.625 152.097656 178.625 C 151.921875 178.628906 151.765625 178.566406 151.632812 178.476562 C 151.425781 178.339844 151.28125 178.132812 151.269531 177.871094 C 151.25 177.433594 151.585938 177.0625 152.027344 177.042969 C 152.050781 177.039062 152.246094 177.03125 152.597656 177.027344 C 152.84375 177.019531 153.164062 177.015625 153.558594 177.011719 C 169.988281 152.140625 166.425781 136.308594 166.261719 135.632812 L 166.144531 135.148438 L 165.65625 135.042969 C 165.386719 134.984375 138.25 129.121094 118.453125 122.25 C 103.480469 117.054688 84.066406 95.683594 75.585938 85.695312 L 75.347656 86.171875 C 75.300781 86.269531 75.226562 86.347656 75.148438 86.417969 C 75.003906 86.535156 74.824219 86.609375 74.636719 86.609375 C 74.519531 86.609375 74.398438 86.582031 74.285156 86.527344 C 73.894531 86.328125 73.730469 85.855469 73.929688 85.464844 L 74.082031 85.15625 L 74.472656 84.375 C 73.195312 82.855469 72.265625 81.707031 71.753906 81.070312 L 70.683594 81 C 67.269531 82.835938 65.761719 80.578125 59.539062 79.320312 C 53.316406 78.058594 52.289062 75.664062 51.179688 73.785156 C 50.074219 71.910156 46.304688 72.089844 46.492188 70.835938 C 46.683594 69.582031 47.164062 69.226562 48.960938 68.640625 C 50.757812 68.058594 50.890625 68.609375 52.105469 67.65625 C 53.316406 66.703125 59.714844 66.09375 59.714844 66.09375 C 59.714844 66.09375 59.714844 66.09375 57.132812 65.488281 C 54.550781 64.886719 50.785156 62.929688 51.1875 60.960938 C 51.59375 58.988281 57.203125 60.050781 59.859375 60.878906 C 62.511719 61.703125 68.511719 66.9375 68.511719 66.9375 C 68.191406 64.804688 67.460938 57.960938 71 60.097656 C 74.539062 62.230469 76.207031 71.289062 76.207031 71.289062 L 76.730469 72.457031 C 77.402344 72.804688 78.398438 73.316406 79.671875 73.96875 L 80.027344 73.261719 C 80.027344 73.261719 80.03125 73.257812 80.03125 73.257812 C 80.230469 72.875 80.699219 72.714844 81.089844 72.910156 C 81.484375 73.105469 81.640625 73.582031 81.445312 73.972656 L 81.445312 73.976562 L 81.089844 74.6875 C 92.308594 80.375 118.160156 92.996094 126.925781 93.234375 C 127.082031 93.242188 127.246094 93.242188 127.417969 93.242188 C 137.113281 93.242188 163.738281 86.164062 173.011719 83.617188 L 171.050781 83.78125 C 169.1875 83.9375 167.699219 82.261719 168.070312 80.429688 L 169.300781 74.375 C 169.546875 73.15625 170.570312 72.242188 171.816406 72.140625 L 230.492188 67.261719 C 231.722656 67.15625 232.871094 67.871094 233.332031 69.015625 L 235.617188 74.742188 C 235.6875 74.921875 235.730469 75.109375 235.761719 75.292969 L 258.066406 74.390625 C 260.269531 74.304688 262.097656 76.074219 262.085938 78.28125 C 262.066406 80.453125 262.03125 83.515625 261.980469 87.226562 C 264.105469 88.125 266.25 89.109375 268.375 90.183594 C 283.710938 97.945312 311.589844 129.660156 321.183594 140.886719 C 321.191406 140.148438 321.097656 139.667969 321.09375 139.660156 C 321.085938 139.621094 321.09375 139.585938 321.089844 139.550781 C 321.058594 139.167969 321.304688 138.800781 321.691406 138.714844 C 322.117188 138.621094 322.539062 138.882812 322.636719 139.308594 C 322.65625 139.378906 322.84375 140.246094 322.75 141.496094 C 322.722656 141.824219 322.675781 142.179688 322.601562 142.554688 C 322.996094 143.019531 323.335938 143.421875 323.617188 143.753906 C 324.140625 143.855469 324.65625 144.046875 325.144531 144.347656 C 329.058594 146.769531 329.804688 150.0625 331.355469 151.222656 C 332.910156 152.378906 332.941406 151.875 335.96875 153.128906 C 338.996094 154.382812 338.503906 156.125 338.503906 156.125 C 338.503906 156.125 341.929688 156.96875 342.363281 158.40625 Z M 189.527344 57.324219 L 191.695312 52.519531 C 191.695312 52.519531 186.648438 54.3125 186.953125 55.160156 C 187.253906 56.007812 189.527344 57.324219 189.527344 57.324219 Z M 189.589844 62.648438 C 192.652344 63.570312 193.972656 60.820312 193.972656 60.820312 L 187.765625 58.496094 C 187.765625 58.496094 186.519531 61.722656 189.589844 62.648438 Z M 282.308594 54.921875 C 282.308594 37.621094 296.335938 23.601562 313.636719 23.601562 C 330.933594 23.601562 344.960938 37.621094 344.960938 54.921875 C 344.960938 72.222656 330.933594 86.246094 313.636719 86.246094 C 296.335938 86.246094 282.308594 72.222656 282.308594 54.921875"/><path fill="#FABAA1" d="M 321.09375 139.660156 C 321.085938 139.621094 321.09375 139.585938 321.089844 139.550781 C 310.902344 127.65625 283.929688 97.167969 268.734375 89.476562 C 249.734375 79.867188 229.78125 77.464844 229.78125 77.464844 L 175.988281 81.964844 C 175.988281 81.964844 137.972656 92.742188 126.949219 92.441406 C 118.398438 92.210938 92.601562 79.621094 81.445312 73.976562 L 75.347656 86.171875 C 75.300781 86.269531 75.226562 86.347656 75.148438 86.417969 C 83.730469 96.53125 103.054688 117.746094 118.191406 123 C 138.265625 129.964844 165.492188 135.820312 165.492188 135.820312 C 165.492188 135.820312 168.257812 147.273438 159.023438 165.96875 C 165.234375 165.566406 213.335938 163.136719 233.902344 182.804688 L 233.863281 182.980469 C 234.996094 178.085938 236.195312 173.011719 237.355469 167.867188 C 235.5 168.085938 233.683594 168.203125 231.902344 168.203125 C 225.730469 168.203125 220 166.910156 214.75 164.324219 C 200.691406 157.402344 194.660156 143.429688 193.078125 139.097656 L 172.472656 138.386719 C 170.152344 138.304688 168.335938 136.371094 168.398438 134.054688 L 169.246094 101.410156 C 169.304688 99.203125 171.054688 97.410156 173.261719 97.296875 L 199.019531 96.011719 C 199.464844 95.988281 199.898438 96.039062 200.304688 96.148438 L 204.804688 95.921875 C 207.273438 95.796875 209.320312 97.8125 209.238281 100.285156 L 208.042969 135.09375 C 207.964844 137.425781 206.007812 139.25 203.679688 139.171875 L 199.410156 139.027344 C 199.5 138.992188 199.585938 138.949219 199.671875 138.914062 C 199.480469 138.992188 199.28125 139.0625 199.078125 139.117188 C 201.238281 144.097656 206.722656 154.210938 217.25 159.371094 C 223.511719 162.441406 230.667969 163.347656 238.625 162.09375 C 240.300781 154.277344 241.773438 146.40625 242.636719 138.878906 C 223.339844 136.042969 219.566406 113.316406 219.566406 113.316406 C 226.746094 122.339844 243.441406 124.367188 243.441406 124.367188 C 243.441406 124.367188 270.167969 130.042969 277.03125 133.4375 C 282.054688 135.925781 300.757812 145.257812 310.425781 150.082031 C 310.53125 149.863281 310.730469 149.695312 310.988281 149.652344 C 315.320312 148.914062 318.324219 147.335938 319.925781 144.957031 C 321.667969 142.375 321.097656 139.6875 321.09375 139.660156 Z M 80.027344 73.261719 C 80.027344 73.261719 80.03125 73.257812 80.03125 73.257812 C 77.636719 72.039062 76.207031 71.289062 76.207031 71.289062 L 70.683594 81 C 70.683594 81 71.929688 82.589844 74.082031 85.15625 Z M 152.597656 177.027344 C 157.730469 176.90625 196.484375 176.726562 230.980469 196.109375 C 231.476562 193.636719 232.03125 191.074219 232.617188 188.453125 L 232.410156 189.363281 C 232.410156 189.363281 215.085938 175.019531 156.015625 171.574219 L 156.0625 171.457031 C 155.015625 173.261719 153.871094 175.113281 152.597656 177.027344 Z M 322.75 141.496094 C 322.65625 142.703125 322.296875 144.261719 321.261719 145.8125 C 319.550781 148.378906 316.515625 150.117188 312.273438 151.003906 C 314.75 152.246094 316.292969 153.011719 316.292969 153.011719 C 316.292969 153.011719 323.449219 153.578125 325.144531 144.347656 C 325.144531 144.347656 324.277344 143.300781 322.75 141.496094 Z M 151.632812 178.476562 C 150.820312 179.679688 150.015625 180.871094 149.238281 182.050781 C 154.757812 181.910156 199.460938 181.445312 229.875 202.136719 C 229.957031 201.589844 230.039062 201.039062 230.136719 200.503906 C 230.300781 199.589844 230.484375 198.640625 230.667969 197.695312 C 230.582031 197.683594 230.5 197.65625 230.421875 197.613281 C 193.9375 177.011719 152.507812 178.609375 152.097656 178.625 C 151.921875 178.628906 151.765625 178.566406 151.632812 178.476562 Z M 280.140625 307.800781 C 282.621094 290.105469 271.304688 274.207031 271.191406 274.046875 C 270.933594 273.691406 271.015625 273.195312 271.367188 272.9375 C 271.402344 272.914062 271.441406 272.910156 271.476562 272.890625 C 265.320312 271.09375 250.132812 266.375 243 261.65625 C 234.375 255.953125 226.957031 225.628906 229.652344 203.785156 C 229.527344 203.769531 229.40625 203.734375 229.296875 203.660156 C 197.4375 181.761719 149.226562 183.636719 148.738281 183.652344 C 148.566406 183.664062 148.417969 183.605469 148.285156 183.519531 C 135.660156 202.90625 127.316406 220.09375 118.378906 239.167969 C 119.203125 238.949219 120.023438 238.832031 120.816406 238.878906 C 126.214844 239.171875 128.554688 245.785156 126.046875 253.644531 C 123.535156 261.507812 117.117188 267.640625 111.722656 267.347656 C 109.636719 267.234375 108.015625 266.171875 106.945312 264.464844 C 98.015625 286.011719 91.75 306.367188 91.75 306.367188 C 91.75 306.367188 93.96875 309.535156 93.652344 314.609375 L 83.820312 310.488281 C 83.820312 310.488281 84.273438 307.945312 82.644531 303.46875 C 77.636719 302.765625 71.230469 303.308594 65.171875 307.984375 L 112.386719 329.351562 C 112.410156 329.363281 112.429688 329.386719 112.453125 329.402344 C 119.199219 317.84375 135.996094 289.621094 152.296875 266.617188 C 152.296875 266.617188 152.296875 266.621094 152.296875 266.625 L 152.292969 266.625 L 172.925781 209.496094 L 179.847656 234.847656 C 179.847656 234.847656 189.785156 265.582031 204.839844 281.878906 C 204.714844 280.550781 204.820312 279.296875 205.226562 278.183594 C 207.074219 273.105469 214.078125 272.785156 220.875 277.472656 C 227.664062 282.15625 231.675781 290.074219 229.828125 295.15625 C 229.738281 295.394531 229.628906 295.617188 229.519531 295.832031 C 245.820312 300.328125 262.449219 299.648438 262.449219 299.648438 C 262.449219 299.648438 265.878906 292.6875 273.121094 294.226562 L 276.132812 300.507812 C 276.132812 300.507812 269.457031 301.007812 264.085938 306.296875 C 265.355469 309.839844 267.523438 313.871094 271.136719 315.886719 C 271.292969 315.578125 271.628906 315.390625 271.984375 315.460938 C 273.734375 315.804688 275.265625 315.523438 276.527344 314.625 C 279.445312 312.550781 280.136719 307.84375 280.140625 307.800781 Z M 63.871094 309.058594 C 63.222656 309.628906 62.578125 310.234375 61.941406 310.910156 L 109.375 334.71875 C 109.375 334.71875 110.191406 333.289062 111.65625 330.765625 L 64.132812 309.257812 C 64.03125 309.210938 63.941406 309.140625 63.871094 309.058594 Z M 274.15625 273.652344 C 287.15625 287.382812 286.289062 317.980469 275.34375 317.144531 C 275.125 317.132812 274.917969 317.09375 274.703125 317.0625 C 275.695312 316.882812 276.617188 316.507812 277.449219 315.914062 C 280.925781 313.433594 281.679688 308.238281 281.710938 308.019531 C 284.191406 290.316406 273.390625 274.425781 272.53125 273.195312 C 273.558594 273.492188 274.15625 273.652344 274.15625 273.652344"/><g clip-path="url(#b)"><path fill="#FAB328" d="M 27.722656 116.09375 L 35.765625 132.445312 L 31.5625 134.511719 L 33.609375 138.683594 L 48.125 131.542969 L 36.285156 107.464844 L 21.769531 114.605469 L 23.519531 118.164062 Z M 60.671875 193.695312 L 82.71875 238.527344 L 97.238281 231.390625 L 75.183594 186.558594 Z M 47.316406 160.960938 C 48.6875 163.746094 52.054688 164.894531 54.84375 163.523438 C 57.628906 162.152344 58.777344 158.78125 57.40625 155.996094 C 56.035156 153.210938 52.664062 152.058594 49.878906 153.429688 C 47.09375 154.800781 45.945312 158.171875 47.316406 160.960938 Z M 31.425781 145.0625 L 54.515625 133.707031 L 72.253906 169.769531 L 49.160156 181.125 L 51.378906 185.628906 L 74.46875 174.273438 L 76.566406 178.539062 L 53.476562 189.894531 Z M 189.589844 62.648438 C 192.652344 63.570312 193.972656 60.820312 193.972656 60.820312 L 187.765625 58.496094 C 187.765625 58.496094 186.519531 61.722656 189.589844 62.648438 Z M 193.765625 49.347656 L 196.574219 50 C 196.855469 50.0625 197.136719 49.886719 197.203125 49.605469 C 197.265625 49.324219 197.089844 49.046875 196.808594 48.980469 L 194 48.332031 C 193.71875 48.265625 193.4375 48.441406 193.375 48.722656 C 193.308594 49 193.484375 49.28125 193.765625 49.347656 Z M 194.976562 51.324219 C 194.671875 51.195312 194.300781 51.394531 194.140625 51.773438 C 193.980469 52.148438 194.097656 52.558594 194.398438 52.683594 C 194.699219 52.8125 195.074219 52.613281 195.234375 52.238281 C 195.394531 51.859375 195.277344 51.453125 194.976562 51.324219 Z M 189.527344 50.152344 C 189.214844 50.058594 188.863281 50.300781 188.746094 50.691406 C 188.628906 51.082031 188.789062 51.476562 189.101562 51.570312 C 189.417969 51.664062 189.769531 51.425781 189.886719 51.035156 C 190.003906 50.640625 189.84375 50.246094 189.527344 50.152344 Z M 185.925781 64.378906 C 185.113281 63.519531 185.863281 59.671875 187.050781 55.351562 C 187.578125 56.191406 189.527344 57.324219 189.527344 57.324219 L 191.695312 52.519531 C 191.695312 52.519531 188.308594 53.726562 187.253906 54.625 C 187.808594 52.667969 188.4375 50.640625 189.042969 48.777344 L 190.820312 48.519531 C 191.105469 48.476562 191.300781 48.210938 191.261719 47.929688 C 191.21875 47.640625 190.953125 47.445312 190.667969 47.488281 L 189.410156 47.671875 C 189.566406 47.199219 189.722656 46.734375 189.871094 46.292969 C 190.097656 45.628906 190.371094 45.007812 190.6875 44.414062 C 192.019531 46.386719 194.21875 47.800781 196.796875 48.027344 C 200.121094 48.320312 202.902344 47.578125 202.902344 47.578125 C 200.148438 49.890625 200.410156 54.015625 200.410156 54.015625 C 200.410156 54.015625 201.757812 52.042969 203.527344 51.136719 C 205.441406 50.164062 207.425781 51.574219 207.085938 53.3125 C 206.601562 55.832031 204.441406 55.800781 204.402344 59.242188 C 204.367188 62.679688 207.398438 64.171875 207.398438 64.171875 C 207.273438 63.613281 207.273438 63 207.363281 62.363281 C 207.355469 62.578125 207.355469 62.792969 207.359375 63.007812 C 207.414062 65.316406 207.59375 67.398438 207.808594 69.144531 L 195.59375 70.164062 L 195.949219 67.820312 C 195.949219 67.820312 187.957031 66.519531 185.925781 64.378906 Z M 168.234375 84.082031 C 164.199219 79.988281 162.351562 76.132812 162.757812 72.597656 C 163.15625 69.136719 165.660156 66.480469 167.679688 64.855469 C 167.085938 62.9375 166.65625 60.960938 166.414062 58.933594 C 163.746094 60.640625 158.0625 65.039062 157.25 71.921875 C 156.714844 76.449219 158.382812 81.054688 162.195312 85.664062 C 164.386719 85.105469 166.429688 84.566406 168.234375 84.082031 Z M 374.972656 257.460938 C 374.179688 240.84375 344.582031 234.078125 327.25 232.8125 C 311.238281 231.636719 276.15625 228.195312 230.171875 200.3125 C 230.160156 200.375 230.148438 200.441406 230.136719 200.503906 C 230.039062 201.039062 229.957031 201.589844 229.875 202.136719 C 229.632812 201.972656 229.390625 201.816406 229.148438 201.65625 C 229.058594 202.226562 228.976562 202.808594 228.90625 203.394531 C 229.035156 203.484375 229.164062 203.566406 229.296875 203.660156 C 229.40625 203.734375 229.527344 203.769531 229.652344 203.785156 C 229.445312 205.460938 229.304688 207.191406 229.210938 208.957031 C 242.125 216.804688 262.046875 226.6875 287.921875 232.8125 C 336.140625 244.226562 356.039062 238.878906 366.253906 254.6875 C 375.664062 269.253906 330.746094 252.46875 271.121094 273.273438 C 271.078125 273.378906 271.050781 273.484375 271.054688 273.597656 C 271.96875 273.863281 272.703125 274.074219 273.207031 274.214844 C 272.871094 273.691406 272.632812 273.339844 272.53125 273.195312 C 273.558594 273.492188 274.15625 273.652344 274.15625 273.652344 C 275.734375 275.320312 277.105469 277.234375 278.28125 279.308594 C 313.519531 267.707031 329.300781 271.925781 344.164062 271.253906 C 362.34375 270.4375 375.765625 274.078125 374.972656 257.460938 Z M 16.40625 320.953125 C 12.769531 307.636719 38.832031 269.222656 100.847656 279.988281 C 101.972656 276.976562 103.179688 273.824219 104.457031 270.605469 C 97.609375 269.566406 90.433594 269.074219 82.789062 269.382812 C 19.789062 271.917969 0.324219 307.636719 8.363281 325.082031 C 16.40625 342.519531 78.359375 356.148438 78.359375 356.148438 L 107.515625 356.148438 C 107.515625 356.148438 21.867188 340.960938 16.40625 320.953125 Z M 229.417969 296.058594 C 226.644531 295.269531 223.875 294.304688 221.179688 293.144531 C 190.550781 300.394531 167.1875 290.445312 142.28125 281.269531 C 140.589844 283.820312 138.917969 286.375 137.277344 288.914062 C 177.851562 300.050781 198.519531 307.742188 233.097656 296.738281 C 231.90625 296.460938 230.710938 296.164062 229.519531 295.832031 C 229.484375 295.90625 229.457031 295.988281 229.417969 296.058594 Z M 112.078125 110.910156 C 107.472656 110.046875 103.464844 110.6875 100.921875 112.390625 C 106.757812 117.152344 112.746094 121.109375 118.191406 123 C 121.046875 123.988281 124.050781 124.957031 127.101562 125.890625 C 127.375 125.136719 127.511719 124.3125 127.449219 123.425781 C 127.070312 118.035156 120.191406 112.429688 112.078125 110.910156 Z M 290.851562 64.171875 C 290.851562 65.976562 292.3125 67.4375 294.121094 67.4375 C 295.925781 67.4375 297.386719 65.976562 297.386719 64.171875 C 297.386719 62.367188 295.925781 60.90625 294.121094 60.90625 C 292.3125 60.90625 290.851562 62.367188 290.851562 64.171875 Z M 294.121094 36.644531 C 294.121094 39.246094 296.230469 41.351562 298.832031 41.351562 C 301.433594 41.351562 303.542969 39.246094 303.542969 36.644531 C 303.542969 34.039062 301.433594 31.933594 298.832031 31.933594 C 296.230469 31.933594 294.121094 34.039062 294.121094 36.644531 Z M 304.136719 56.683594 C 304.136719 60.3125 307.082031 63.257812 310.714844 63.257812 C 314.347656 63.257812 317.292969 60.3125 317.292969 56.683594 C 317.292969 53.050781 314.347656 50.105469 310.714844 50.105469 C 307.082031 50.105469 304.136719 53.050781 304.136719 56.683594 Z M 314.90625 74.890625 C 312.449219 74.890625 310.460938 76.882812 310.460938 79.339844 C 310.460938 81.792969 312.449219 83.785156 314.90625 83.785156 C 317.363281 83.785156 319.355469 81.792969 319.355469 79.339844 C 319.355469 76.882812 317.363281 74.890625 314.90625 74.890625 Z M 319.980469 47.582031 C 319.980469 50.660156 322.476562 53.160156 325.558594 53.160156 C 328.636719 53.160156 331.132812 50.660156 331.132812 47.582031 C 331.132812 44.5 328.636719 42.003906 325.558594 42.003906 C 322.476562 42.003906 319.980469 44.5 319.980469 47.582031 Z M 282.308594 54.921875 C 282.308594 54.707031 282.324219 54.492188 282.328125 54.277344 C 282.675781 54.488281 283.082031 54.613281 283.519531 54.613281 C 284.820312 54.613281 285.875 53.558594 285.875 52.257812 C 285.875 50.957031 284.820312 49.902344 283.519531 49.902344 C 283.226562 49.902344 282.945312 49.964844 282.6875 50.058594 C 284.878906 35.992188 296.433594 25.03125 310.773438 23.734375 C 310.746094 23.9375 310.714844 24.136719 310.714844 24.34375 C 310.714844 26.660156 312.589844 28.535156 314.90625 28.535156 C 317.21875 28.535156 319.097656 26.660156 319.097656 24.34375 C 319.097656 24.253906 319.074219 24.167969 319.070312 24.078125 C 330.6875 26.113281 340.105469 34.539062 343.550781 45.605469 C 343.1875 45.511719 342.8125 45.453125 342.421875 45.453125 C 339.964844 45.453125 337.972656 47.445312 337.972656 49.902344 C 337.972656 52.359375 339.964844 54.347656 342.421875 54.347656 C 343.351562 54.347656 344.210938 54.0625 344.925781 53.574219 C 344.945312 54.019531 344.960938 54.46875 344.960938 54.921875 C 344.960938 62.078125 342.554688 68.671875 338.515625 73.945312 C 337.324219 72.703125 335.46875 72.214844 333.753906 72.847656 C 331.449219 73.699219 330.273438 76.257812 331.128906 78.5625 C 331.359375 79.1875 331.722656 79.730469 332.167969 80.171875 C 326.976562 83.988281 320.570312 86.246094 313.636719 86.246094 C 296.335938 86.246094 282.308594 72.222656 282.308594 54.921875 Z M 273.109375 93.011719 C 273.203125 92.761719 273.316406 92.53125 273.433594 92.300781 C 280.199219 96.902344 288.359375 104.414062 296.179688 112.320312 C 293.265625 115.007812 287.59375 114.511719 282.0625 110.695312 C 275.269531 106.011719 271.261719 98.09375 273.109375 93.011719"/></g><g clip-path="url(#c)"><path fill="#CAEEFB" d="M 36.957031 176.910156 L 31.75 166.316406 L 27.398438 168.457031 L 32.605469 179.050781 Z M 31.003906 179.839844 L 25.792969 169.246094 L 21.4375 171.386719 L 26.648438 181.980469 Z M 25.046875 182.769531 L 19.835938 172.175781 L 15.484375 174.316406 L 20.695312 184.910156 Z M 19.089844 185.699219 L 13.882812 175.105469 L 9.527344 177.246094 L 14.738281 187.839844 Z M 13.132812 188.628906 L 7.921875 178.035156 L 3.570312 180.175781 L 8.78125 190.765625 Z M 32.429688 163.289062 L 39.65625 177.976562 L 7.980469 193.554688 L 0.757812 178.863281 Z M 104.539062 143.671875 L 99.328125 133.078125 L 94.976562 135.21875 L 100.1875 145.8125 Z M 98.582031 146.601562 L 93.375 136.007812 L 89.019531 138.148438 L 94.230469 148.742188 Z M 92.625 149.53125 L 87.414062 138.9375 L 83.066406 141.078125 L 88.273438 151.671875 Z M 86.667969 152.460938 L 81.460938 141.867188 L 77.109375 144.007812 L 82.316406 154.601562 Z M 80.714844 155.386719 L 75.503906 144.796875 L 71.148438 146.9375 L 76.359375 157.53125 Z M 100.011719 130.050781 L 107.234375 144.738281 L 75.558594 160.316406 L 68.335938 145.628906 Z M 50.605469 154.910156 C 48.636719 155.878906 47.824219 158.261719 48.792969 160.230469 C 49.761719 162.203125 52.144531 163.015625 54.117188 162.042969 C 56.085938 161.078125 56.898438 158.695312 55.929688 156.722656 C 54.957031 154.753906 52.574219 153.941406 50.605469 154.910156 Z M 74.390625 194.480469 L 82.429688 210.832031 L 89.992188 207.117188 L 81.949219 190.765625 Z M 69.433594 221.058594 L 77.476562 237.40625 L 85.035156 233.691406 L 76.992188 217.339844 Z M 226.910156 71.082031 C 225.683594 71.082031 224.6875 72.074219 224.6875 73.300781 C 224.6875 74.527344 225.683594 75.519531 226.910156 75.519531 C 228.132812 75.519531 229.128906 74.527344 229.128906 73.300781 C 229.128906 72.074219 228.132812 71.082031 226.910156 71.082031 Z M 203.046875 72.992188 C 201.820312 72.992188 200.828125 73.984375 200.828125 75.210938 C 200.828125 76.433594 201.820312 77.429688 203.046875 77.429688 C 204.273438 77.429688 205.269531 76.433594 205.269531 75.210938 C 205.269531 73.984375 204.273438 72.992188 203.046875 72.992188 Z M 193.96875 125.730469 C 192.152344 125.742188 190.691406 127.230469 190.707031 129.050781 C 190.726562 130.867188 192.210938 132.328125 194.03125 132.308594 C 195.847656 132.292969 197.308594 130.808594 197.289062 128.988281 C 197.273438 127.171875 195.785156 125.710938 193.96875 125.730469 Z M 171.511719 106.144531 C 171.523438 107.964844 173.011719 109.425781 174.832031 109.410156 L 184.183594 109.320312 C 186 109.304688 187.460938 107.816406 187.441406 106.003906 C 187.425781 104.183594 185.941406 102.722656 184.121094 102.738281 L 174.769531 102.824219 C 172.953125 102.84375 171.492188 104.332031 171.511719 106.144531 Z M 175.078125 114.363281 C 173.261719 114.378906 171.800781 115.863281 171.816406 117.683594 C 171.835938 119.5 173.320312 120.960938 175.140625 120.945312 L 184.488281 120.859375 C 186.308594 120.84375 187.765625 119.355469 187.75 117.535156 C 187.734375 115.71875 186.246094 114.257812 184.429688 114.277344 Z M 181.40625 77.117188 C 181.40625 75.890625 180.414062 74.898438 179.1875 74.898438 C 177.960938 74.898438 176.964844 75.890625 176.964844 77.117188 C 176.964844 78.34375 177.960938 79.339844 179.1875 79.339844 C 180.414062 79.339844 181.40625 78.34375 181.40625 77.117188 Z M 193.355469 102.65625 C 191.535156 102.671875 190.078125 104.160156 190.089844 105.976562 C 190.109375 107.792969 191.597656 109.253906 193.414062 109.238281 C 195.230469 109.222656 196.695312 107.734375 196.675781 105.914062 C 196.660156 104.097656 195.171875 102.636719 193.355469 102.65625 Z M 204.894531 21.601562 C 186.492188 18.832031 169.328125 31.503906 166.558594 49.90625 C 165.339844 57.988281 167.105469 65.835938 171.027344 72.328125 C 171.277344 72.230469 171.539062 72.160156 171.816406 72.140625 L 195.59375 70.164062 L 195.949219 67.820312 C 195.949219 67.820312 187.957031 66.519531 185.925781 64.378906 C 185.113281 63.519531 185.863281 59.671875 187.050781 55.351562 C 187.007812 55.289062 186.976562 55.222656 186.953125 55.160156 C 186.898438 55.007812 187.019531 54.824219 187.253906 54.625 C 187.808594 52.667969 188.4375 50.640625 189.042969 48.777344 L 187.964844 48.941406 C 187.679688 48.980469 187.417969 48.78125 187.371094 48.5 C 187.332031 48.210938 187.527344 47.949219 187.8125 47.90625 L 189.410156 47.671875 C 189.566406 47.199219 189.722656 46.734375 189.871094 46.292969 C 190.097656 45.628906 190.371094 45.007812 190.6875 44.414062 C 189.429688 42.550781 188.941406 40.191406 189.636719 37.847656 C 190.277344 35.703125 191.867188 33.761719 195.308594 33.046875 C 204.496094 31.144531 203.382812 37.46875 208.554688 38.246094 C 213.726562 39.027344 215.335938 47.964844 212.46875 52.707031 C 212.46875 52.707031 207.9375 58.136719 207.363281 62.363281 C 207.355469 62.578125 207.355469 62.792969 207.359375 63.007812 C 207.414062 65.316406 207.59375 67.398438 207.808594 69.144531 L 230.492188 67.261719 C 230.738281 67.238281 230.976562 67.261719 231.210938 67.300781 C 232.128906 64.976562 232.808594 62.519531 233.195312 59.941406 C 235.964844 41.539062 223.296875 24.375 204.894531 21.601562 Z M 180.324219 313.242188 C 179.042969 313.242188 178.003906 314.28125 178.003906 315.5625 C 178.003906 316.84375 179.042969 317.878906 180.324219 317.878906 C 181.605469 317.878906 182.640625 316.84375 182.640625 315.5625 C 182.640625 314.28125 181.605469 313.242188 180.324219 313.242188 Z M 184.738281 125.8125 L 175.386719 125.898438 C 173.570312 125.917969 172.109375 127.402344 172.125 129.21875 C 172.140625 131.039062 173.628906 132.496094 175.445312 132.480469 L 184.796875 132.394531 C 186.613281 132.378906 188.074219 130.890625 188.054688 129.074219 C 188.042969 127.253906 186.554688 125.796875 184.738281 125.8125 Z M 192.46875 334.550781 C 191.1875 334.550781 190.148438 335.589844 190.148438 336.871094 C 190.148438 338.148438 191.1875 339.1875 192.46875 339.1875 C 193.75 339.1875 194.789062 338.148438 194.789062 336.871094 C 194.789062 335.589844 193.75 334.550781 192.46875 334.550781 Z M 279.390625 78.023438 C 277.113281 78.023438 275.261719 79.871094 275.261719 82.152344 C 275.261719 84.429688 277.113281 86.277344 279.390625 86.277344 C 281.671875 86.277344 283.519531 84.429688 283.519531 82.152344 C 283.519531 79.871094 281.671875 78.023438 279.390625 78.023438 Z M 278.605469 146.671875 C 276.328125 146.671875 274.480469 148.519531 274.480469 150.800781 C 274.480469 153.082031 276.328125 154.929688 278.605469 154.929688 C 280.886719 154.929688 282.734375 153.082031 282.734375 150.800781 C 282.734375 148.519531 280.886719 146.671875 278.605469 146.671875 Z M 278.605469 344.007812 C 277.328125 344.007812 276.289062 345.042969 276.289062 346.324219 C 276.289062 347.605469 277.328125 348.644531 278.605469 348.644531 C 279.886719 348.644531 280.925781 347.605469 280.925781 346.324219 C 280.925781 345.042969 279.886719 344.007812 278.605469 344.007812 Z M 326.039062 335.144531 C 324.761719 335.144531 323.722656 336.183594 323.722656 337.464844 C 323.722656 338.742188 324.761719 339.78125 326.039062 339.78125 C 327.320312 339.78125 328.359375 338.742188 328.359375 337.464844 C 328.359375 336.183594 327.320312 335.144531 326.039062 335.144531 Z M 290.035156 320.953125 C 287.757812 320.953125 285.910156 322.800781 285.910156 325.082031 C 285.910156 327.359375 287.757812 329.207031 290.035156 329.207031 C 292.316406 329.207031 294.164062 327.359375 294.164062 325.082031 C 294.164062 322.800781 292.316406 320.953125 290.035156 320.953125 Z M 235.816406 325.164062 C 234.535156 325.164062 233.5 326.199219 233.5 327.484375 C 233.5 328.765625 234.535156 329.804688 235.816406 329.804688 C 237.097656 329.804688 238.136719 328.765625 238.136719 327.484375 C 238.136719 326.199219 237.097656 325.164062 235.816406 325.164062 Z M 247.421875 224.554688 C 245.140625 224.554688 243.292969 226.402344 243.292969 228.683594 C 243.292969 230.964844 245.140625 232.8125 247.421875 232.8125 C 249.703125 232.8125 251.550781 230.964844 251.550781 228.683594 C 251.550781 226.402344 249.703125 224.554688 247.421875 224.554688 Z M 251.550781 189.363281 C 250.269531 189.363281 249.230469 190.402344 249.230469 191.683594 C 249.230469 192.964844 250.269531 194 251.550781 194 C 252.832031 194 253.867188 192.964844 253.867188 191.683594 C 253.867188 190.402344 252.832031 189.363281 251.550781 189.363281 Z M 265.878906 214.730469 C 264.597656 214.730469 263.558594 215.769531 263.558594 217.050781 C 263.558594 218.328125 264.597656 219.367188 265.878906 219.367188 C 267.15625 219.367188 268.195312 218.328125 268.195312 217.050781 C 268.195312 215.769531 267.15625 214.730469 265.878906 214.730469 Z M 253.816406 36.644531 C 252.535156 36.644531 251.496094 37.679688 251.496094 38.960938 C 251.496094 40.242188 252.535156 41.28125 253.816406 41.28125 C 255.097656 41.28125 256.136719 40.242188 256.136719 38.960938 C 256.136719 37.679688 255.097656 36.644531 253.816406 36.644531 Z M 271.464844 60.601562 C 270.183594 60.601562 269.144531 61.640625 269.144531 62.921875 C 269.144531 64.203125 270.183594 65.238281 271.464844 65.238281 C 272.746094 65.238281 273.78125 64.203125 273.78125 62.921875 C 273.78125 61.640625 272.746094 60.601562 271.464844 60.601562 Z M 190.402344 117.511719 C 190.414062 119.332031 191.902344 120.789062 193.722656 120.773438 C 195.539062 120.757812 197 119.269531 196.984375 117.453125 C 196.96875 115.636719 195.480469 114.175781 193.660156 114.191406 C 191.84375 114.210938 190.382812 115.695312 190.402344 117.511719 Z M 80.707031 177.390625 C 80.707031 176.109375 79.667969 175.074219 78.386719 175.074219 C 77.105469 175.074219 76.066406 176.109375 76.066406 177.390625 C 76.066406 178.675781 77.105469 179.714844 78.386719 179.714844 C 79.667969 179.714844 80.707031 178.675781 80.707031 177.390625 Z M 172.523438 273.582031 C 170.246094 273.582031 168.394531 275.429688 168.394531 277.710938 C 168.394531 279.992188 170.246094 281.839844 172.523438 281.839844 C 174.804688 281.839844 176.652344 279.992188 176.652344 277.710938 C 176.652344 275.429688 174.804688 273.582031 172.523438 273.582031 Z M 94.890625 154.464844 C 92.609375 154.464844 90.761719 156.3125 90.761719 158.59375 C 90.761719 160.875 92.609375 162.722656 94.890625 162.722656 C 97.167969 162.722656 99.015625 160.875 99.015625 158.59375 C 99.015625 156.3125 97.167969 154.464844 94.890625 154.464844 Z M 96.699219 194.265625 C 96.699219 191.988281 94.851562 190.140625 92.570312 190.140625 C 90.289062 190.140625 88.441406 191.988281 88.441406 194.265625 C 88.441406 196.542969 90.289062 198.394531 92.570312 198.394531 C 94.851562 198.394531 96.699219 196.542969 96.699219 194.265625 Z M 96.699219 242.148438 C 95.417969 242.148438 94.378906 243.1875 94.378906 244.46875 C 94.378906 245.75 95.417969 246.789062 96.699219 246.789062 C 97.980469 246.789062 99.015625 245.75 99.015625 244.46875 C 99.015625 243.1875 97.980469 242.148438 96.699219 242.148438 Z M 61.558594 224.492188 C 60.277344 224.492188 59.238281 225.53125 59.238281 226.8125 C 59.238281 228.09375 60.277344 229.128906 61.558594 229.128906 C 62.835938 229.128906 63.875 228.09375 63.875 226.8125 C 63.875 225.53125 62.835938 224.492188 61.558594 224.492188 Z M 290.242188 171.574219 C 291.523438 171.574219 292.558594 170.535156 292.558594 169.253906 C 292.558594 167.972656 291.523438 166.9375 290.242188 166.9375 C 288.960938 166.9375 287.921875 167.972656 287.921875 169.253906 C 287.921875 170.535156 288.960938 171.574219 290.242188 171.574219 Z M 52.933594 259.789062 C 51.652344 259.789062 50.617188 260.824219 50.617188 262.105469 C 50.617188 263.386719 51.652344 264.429688 52.933594 264.429688 C 54.214844 264.429688 55.253906 263.386719 55.253906 262.105469 C 55.253906 260.824219 54.214844 259.789062 52.933594 259.789062 Z M 46.488281 329.207031 C 44.207031 329.207031 42.359375 331.054688 42.359375 333.335938 C 42.359375 335.617188 44.207031 337.464844 46.488281 337.464844 C 48.769531 337.464844 50.617188 335.617188 50.617188 333.335938 C 50.617188 331.054688 48.769531 329.207031 46.488281 329.207031 Z M 74.257812 273.582031 C 71.976562 273.582031 70.128906 275.429688 70.128906 277.710938 C 70.128906 279.992188 71.976562 281.839844 74.257812 281.839844 C 76.535156 281.839844 78.386719 279.992188 78.386719 277.710938 C 78.386719 275.429688 76.535156 273.582031 74.257812 273.582031 Z M 120.136719 156.800781 C 118.855469 156.800781 117.816406 157.84375 117.816406 159.125 C 117.816406 160.40625 118.855469 161.441406 120.136719 161.441406 C 121.417969 161.441406 122.453125 160.40625 122.453125 159.125 C 122.453125 157.84375 121.417969 156.800781 120.136719 156.800781 Z M 136.777344 66.5625 C 134.496094 66.5625 132.648438 68.410156 132.648438 70.691406 C 132.648438 72.96875 134.496094 74.816406 136.777344 74.816406 C 139.054688 74.816406 140.902344 72.96875 140.902344 70.691406 C 140.902344 68.410156 139.054688 66.5625 136.777344 66.5625 Z M 139.097656 338.511719 C 139.097656 339.792969 138.058594 340.832031 136.777344 340.832031 C 135.496094 340.832031 134.457031 339.792969 134.457031 338.511719 C 134.457031 337.230469 135.496094 336.191406 136.777344 336.191406 C 138.058594 336.191406 139.097656 337.230469 139.097656 338.511719"/></g></svg>